<svg xmlns="http://www.w3.org/2000/svg" viewBox="0 0 200 200" width="200" height="200">
  <!-- Background -->
  <circle cx="100" cy="100" r="100" fill="#7c3aed"/>
  
  <!-- Hair (back layer) -->
  
                <ellipse cx="100" cy="65" rx="60" ry="40" fill="#8b4513"/>
                <circle cx="100" cy="30" r="25" fill="#8b4513"/>
            
  
  <!-- Face -->
  <ellipse cx="100" cy="95" rx="55" ry="75" fill="#8b6914"/>
  
  <!-- Neck -->
  <rect x="80" y="140" width="40" height="30" fill="#8b6914"/>
  
  <!-- Shoulders -->
  <ellipse cx="100" cy="185" rx="55" ry="30" fill="#7c3aed" opacity="0.9"/>
  
  <!-- Shirt collar -->
  <path d="M 60 165 Q 100 175 140 165 L 155 200 L 45 200 Z" fill="#ffffff" opacity="0.9"/>
  
  <!-- Eyes -->
  <ellipse cx="82" cy="90" rx="7" ry="5" fill="#ffffff"/>
  <ellipse cx="118" cy="90" rx="7" ry="5" fill="#ffffff"/>
  <circle cx="83" cy="90" r="4" fill="#3d2314"/>
  <circle cx="119" cy="90" r="4" fill="#3d2314"/>
  <circle cx="84" cy="89" r="1.5" fill="#ffffff"/>
  <circle cx="120" cy="89" r="1.5" fill="#ffffff"/>
  
  <!-- Eyebrows -->
  <path d="M 72 82 Q 82 78 92 82" stroke="#8b4513" stroke-width="2.5" fill="none" stroke-linecap="round"/>
  <path d="M 108 82 Q 118 78 128 82" stroke="#8b4513" stroke-width="2.5" fill="none" stroke-linecap="round"/>
  
  <!-- Nose -->
  <path d="M 100 90 Q 104 100 100 105 Q 96 100 100 90" fill="#8b6914" stroke="#00000020" stroke-width="0.5"/>
  
  <!-- Mouth -->
  <path d="M 88 118 Q 100 125 112 118" stroke="#c08080" stroke-width="3" fill="none" stroke-linecap="round"/>
  
  <!-- Ears -->
  <ellipse cx="50" cy="95" rx="8" ry="12" fill="#8b6914"/>
  <ellipse cx="150" cy="95" rx="8" ry="12" fill="#8b6914"/>
</svg>